<svg width="8" height="16" viewBox="0 0 8 16" fill="none" xmlns="http://www.w3.org/2000/svg">
<mask id="path-1-inside-1_140_7811" fill="white">
<path d="M8 -3.49691e-07C5.87827 -2.56947e-07 3.84344 0.842854 2.34315 2.34315C0.842854 3.84344 -2.82249e-07 5.87827 -3.49691e-07 8C-4.17134e-07 10.1217 0.842854 12.1566 2.34315 13.6569C3.84344 15.1571 5.87827 16 8 16L8 8L8 -3.49691e-07Z"/>
</mask>
<path d="M8 -3.49691e-07C5.87827 -2.56947e-07 3.84344 0.842854 2.34315 2.34315C0.842854 3.84344 -2.82249e-07 5.87827 -3.49691e-07 8C-4.17134e-07 10.1217 0.842854 12.1566 2.34315 13.6569C3.84344 15.1571 5.87827 16 8 16L8 8L8 -3.49691e-07Z" fill="#2FAC8E" stroke="#2FAC8E" stroke-width="3" mask="url(#path-1-inside-1_140_7811)"/>
</svg>
